<?xml version="1.0" encoding="utf-8"?>
<!-- Generator: Adobe Illustrator 26.3.1, SVG Export Plug-In . SVG Version: 6.00 Build 0)  -->
<svg version="1.1" id="Слой_1" xmlns="http://www.w3.org/2000/svg" xmlns:xlink="http://www.w3.org/1999/xlink" x="0px" y="0px"
	 viewBox="0 0 800 800" style="enable-background:new 0 0 800 800;" xml:space="preserve">
<style type="text/css">
	.st0{fill:#5FBAAA;}
	.st1{fill:#020203;}
</style>
<g>
	<path class="st0" d="M238.7,105.6v7.6h34.2c-3.8,33-20.3,54.5-38,67.2l-1.3,14.9c22.8-10.1,55.8-39,58.3-91h-53.3V105.6z
		 M241.2,57.4V65h76.1v22.8H240v5.1h96.4V57.4H241.2z M390.8,265.3c0-2.5,1.3-6.3,3.8-6.3c-2.5-3.8-7.6-6.3-12.7-5.1
		c-6.3,1.3-11.4,7.6-10.1,15.2l11.4,63.4l-77.3,405.7H204.5v5.1h119.2l78.6-412.1L390.8,265.3z M380.7,162.6v-60.1h-76.1
		c0,2.5,0,8.1,0,10.6H363v50.7c0,30.4,24.1,54.5,54.5,54.5c5.1,0,10.1-3.8,11.4-7.6C402.3,209.5,380.7,188,380.7,162.6z
		 M416.2,193.1c-2.5,0-5.1,0-7.6-1.3c5.1,3.8,11.4,5.1,16.5,6.3C423.8,194.3,421.3,193.1,416.2,193.1z M458,92.9h120.5l-1.3-35.5
		h-227V79c1.3,0,2.5,1.3,3.8,1.3h16.5c3.8,0,6.3-1.3,8.9-3.8c2.5,2.5,5.1,3.8,8.9,3.8h38v7.6h-76.1v5.1h95.1V72.6H401
		c-3.8,0-6.3-2.5-6.3-6.3c0-3.8,2.5-6.3,6.3-6.3h50.7c3.8,0,6.3,2.5,6.3,6.3h98.9l1.3,22.8H456.8v3.8H458z M382,72.6h-16.5
		c-3.8,0-6.3-2.5-6.3-6.3c0-3.8,2.5-6.3,6.3-6.3H382c3.8,0,6.3,2.5,6.3,6.3C388.3,68.8,385.8,72.6,382,72.6z M193.4,752.7
		c-1.3-1.3-1.7-3-1.7-5.5l29.2-542.7l0,0L226,99.2l0,0l2.5-48.2c0-3.8,2.5-6.3,6.3-6.3h343.6c-2.5-3.8-6.3-5.1-10.1-5.1H222.2
		c-6.3,0-12.7,5.1-12.7,12.7L207,99.2l0,0l-5.1,105.2l0,0l-29.2,542.7c0,3.8,1.3,6.3,3.8,8.9c2.5,2.5,5.1,3.8,8.9,3.8H316
		c4,0,8-2.6,10.1-5.7L197,754.7C197,754.7,194.5,753.7,193.4,752.7z M578.5,105.6h-57.1c0,2.5,0,5.1,1.3,7.6h36.8l3.8,68.5
		c6.3,5.1,13.9,10.1,20.3,12.7L578.5,105.6z M583.6,208.3c-26.6-11.4-72.3-44.4-74.8-102.7H393.4v7.6h96.4
		c5.1,55.8,46.9,88.8,74.8,101.4L593.7,737H492.5l1.3,5.1H614L583.6,208.3z M488.5,753.5c-2.5,0-4.1-2.5-5.3-5.1L409.6,363
		l-11.1,50.7l64.7,337.3c1.3,6.3,6.3,10.1,12.7,10.1h130.6c3.8,0,6.3-1.3,8.9-3.8c1.3-1.3,1.3-2.5,2.5-3.8
		C617.8,753.5,488.5,753.5,488.5,753.5z"/>
	<path class="st1" d="M596.2,204.5L596.2,204.5l-6.3-105.2l0,0l-2.5-48.2c0-3.8-2.5-6.3-6.3-6.3H234.9c-3.8,0-6.3,2.5-6.3,6.3
		L226,99.2l0,0l-5.1,105.2l0,0l-29.2,542.7c0,1.3,0,3.8,1.3,5.1s2.5,2.5,5.1,2.5h130.6c2.5,0,6.3-2.5,6.3-5.1l64.7-336l10.1-50.7
		l73.5,385.4c0,2.5,3.8,5.1,6.3,5.1h130.6c1.3,0,3.8-1.3,5.1-2.5c1.3-1.3,1.3-2.5,1.3-5.1L596.2,204.5z M583.6,194.3
		c-6.3-2.5-12.7-7.6-20.3-12.7c-19-13.9-36.8-36.8-40.6-68.5c0-2.5,0-5.1-1.3-7.6h57.1L583.6,194.3z M349,57.4h227l1.3,35.5H457.8
		V66c0-3.8-2.5-6.3-6.3-6.3h-50.7c-3.8,0-6.3,2.5-6.3,6.3c0,3.8,2.5,6.3,6.3,6.3h44.4v19.3H349V57.4z M240,87.8l1.3-22.8v-7.6h95.1
		v35.5H240V87.8z M234.9,180.4l3.8-67.2v-7.6h53.3c-2.5,52-35.5,78.6-58.3,90L234.9,180.4z M493.5,740.8l-1.3-5.1l-77.3-408.3l0,0
		l-11.4-64.7c0-3.8-3.8-6.3-7.6-5.1h-1.3c-2.5,1.3-3.8,3.8-3.8,6.3l11.4,63.4l-78.6,412.1H204.5v-5.1l29.2-524.9V207
		c5.1-2.5,11.4-5.1,17.8-8.9c22.8-13.9,48.2-41.8,53.3-87.5c0-2.5,0-5.1,0-7.6h76.1v59.6c0,26.6,21.6,48.2,46.9,48.2h1.3
		c3.8,0,6.3-2.5,6.3-6.3s-2.5-6.3-6.3-6.3c-1.3,0-1.3,0-2.5,0c-6.3,0-12.7-2.5-16.5-6.3c-10.1-6.3-16.5-17.8-16.5-29.2v-57.1h115.4
		c2.5,59.6,48.2,92.6,74.8,102.7l29.2,532.5H493.5z"/>
	<path class="st1" d="M388.3,66.3c0,3.8-2.5,6.3-6.3,6.3h-16.5c-3.8,0-6.3-2.5-6.3-6.3c0-3.8,2.5-6.3,6.3-6.3H382
		C385.8,59.9,388.3,62.5,388.3,66.3z"/>
</g>
</svg>
